HIERARCHY
ROOT Hips
{
	OFFSET 0.000000 0.000000 0.000000
	CHANNELS 6 Xposition Yposition Zposition Zrotation Yrotation Xrotation 
	JOINT LowerBack
	{
		OFFSET 0.000000 0.000000 0.000000
		CHANNELS 3 Zrotation Yrotation Xrotation
		JOINT Spine
		{
			OFFSET 0.028270 2.035590 -0.193380
			CHANNELS 3 Zrotation Yrotation Xrotation
			JOINT Spine1
			{
				OFFSET 0.056720 2.048850 -0.042750
				CHANNELS 3 Zrotation Yrotation Xrotation
				JOINT Neck
				{
					OFFSET 0.000000 0.000000 0.000000
					CHANNELS 3 Zrotation Yrotation Xrotation
					JOINT Neck1
					{
						OFFSET -0.054170 1.746240 0.172020
						CHANNELS 3 Zrotation Yrotation Xrotation
						JOINT Head
						{
							OFFSET 0.104070 1.761360 -0.123970
							CHANNELS 3 Zrotation Yrotation Xrotation
							End Site
							{
								OFFSET 0.000000 0.000000 0.000000
							}
						}
					}
				}
				JOINT LeftShoulder
				{
					OFFSET 0.000000 0.000000 0.000000
					CHANNELS 3 Zrotation Yrotation Xrotation
					JOINT LeftArm
					{
						OFFSET 3.362410 1.200890 -0.311210
						CHANNELS 3 Zrotation Yrotation Xrotation
						JOINT LeftForeArm
						{
							OFFSET 4.983000 -0.000000 -0.000000
							CHANNELS 3 Zrotation Yrotation Xrotation
							JOINT LeftHand
							{
								OFFSET 3.483560 -0.000000 -0.000000
								CHANNELS 3 Zrotation Yrotation Xrotation
								JOINT LeftFingerBase
								{
									OFFSET 0.000000 0.000000 0.000000
									CHANNELS 3 Zrotation Yrotation Xrotation
									JOINT LeftHandIndex1
									{
										OFFSET 0.715260 -0.000000 -0.000000
										CHANNELS 3 Zrotation Yrotation Xrotation
										End Site
										{
											OFFSET 0.000000 0.000000 0.000000
										}
									}
								}
								JOINT LThumb
								{
									OFFSET 0.000000 0.000000 0.000000
									CHANNELS 3 Zrotation Yrotation Xrotation
									End Site
									{
										OFFSET 0.000000 0.000000 0.000000
									}
								}
							}
						}
					}
				}
				JOINT RightShoulder
				{
					OFFSET 0.000000 0.000000 0.000000
					CHANNELS 3 Zrotation Yrotation Xrotation
					JOINT RightArm
					{
						OFFSET -3.136600 1.374050 -0.404650
						CHANNELS 3 Zrotation Yrotation Xrotation
						JOINT RightForeArm
						{
							OFFSET -5.241900 -0.000000 -0.000000
							CHANNELS 3 Zrotation Yrotation Xrotation
							JOINT RightHand
							{
								OFFSET -3.444170 -0.000000 -0.000000
								CHANNELS 3 Zrotation Yrotation Xrotation
								JOINT RightFingerBase
								{
									OFFSET 0.000000 0.000000 0.000000
									CHANNELS 3 Zrotation Yrotation Xrotation
									JOINT RightHandIndex1
									{
										OFFSET -0.622530 -0.000000 -0.000000
										CHANNELS 3 Zrotation Yrotation Xrotation
										End Site
										{
											OFFSET 0.000000 0.000000 0.000000
										}
									}
								}
								JOINT RThumb
								{
									OFFSET 0.000000 0.000000 0.000000
									CHANNELS 3 Zrotation Yrotation Xrotation
									End Site
									{
										OFFSET 0.000000 0.000000 0.000000
									}
								}
							}
						}
					}
				}
			}
		}
	}
}
}
MOTION
Frames: 15
Frame Time: 0.008333
5.720357 16.832411 -4.805332 178.003482 35.970943 -171.815554 -7.230203 -0.240902 -0.669012 -2.585550 0.110365 -3.203416 -7.805472 -0.003354 0.395305 9.436845 -3.352765 -7.266488 -4.802591 -0.368299 -0.040011 0.000000 0.000000 0.000000 -6.493314 10.426625 2.009162 -62.325778 1.835854 4.052750 -3.976097 -12.640311 -0.004848 2.449452 4.858951 0.106495 -0.058352 0.002243 -0.000000 0.000000 0.000000 0.000000 0.000000 0.000000 0.000000 20.493557 1.256056 1.555442 57.191229 12.167254 1.930465 3.037302 30.834171 0.015117 2.306759 6.814418 0.136725 0.068903 -0.132721 0.000000 0.000000 0.000000 0.000000 0.000000 0.000000 0.000000 
5.781707 16.855127 -4.932995 177.668700 35.572579 -172.082400 -7.568683 -0.291250 -0.714706 -2.656812 0.080468 -3.211303 -7.821831 -0.033183 0.385597 9.477421 -3.581143 -7.258921 -4.804721 -0.368993 -0.038005 0.000000 0.000000 0.000000 -6.333612 10.212215 2.005139 -62.424484 1.537916 3.808054 -3.992622 -12.022600 -0.004996 2.571385 4.906514 0.112594 -0.057826 0.005299 -0.000000 0.000000 0.000000 0.000000 0.000000 0.000000 0.000000 20.564106 1.007068 1.474210 58.056927 11.658309 2.066059 3.004818 31.224460 0.015040 2.383409 6.833434 0.141928 0.066550 -0.132704 0.000000 0.000000 0.000000 0.000000 0.000000 0.000000 0.000000 
5.838239 16.878688 -5.060935 177.398138 35.199539 -172.285159 -7.823146 -0.328748 -0.769679 -2.710691 0.058427 -3.221146 -7.833578 -0.055219 0.376835 9.486899 -3.771885 -7.246694 -4.805260 -0.369540 -0.034443 0.000000 0.000000 0.000000 -6.220979 10.034892 2.000732 -62.532910 1.179738 3.662804 -4.004169 -11.522111 -0.005165 2.654165 4.958736 0.117294 -0.057457 0.008418 -0.000000 0.000000 0.000000 0.000000 0.000000 0.000000 0.000000 20.590992 0.798810 1.394838 58.899008 11.125117 2.125597 2.977023 31.574404 0.014968 2.479342 6.828651 0.147828 0.064178 -0.132586 0.000000 0.000000 0.000000 0.000000 0.000000 0.000000 0.000000 
5.890662 16.902560 -5.187960 177.165145 34.854999 -172.454852 -8.026259 -0.356315 -0.818690 -2.753834 0.043476 -3.229899 -7.842064 -0.070091 0.368531 9.479561 -3.966065 -7.234903 -4.804793 -0.369969 -0.030820 0.000000 0.000000 0.000000 -6.136580 9.843444 1.994520 -62.655513 0.826781 3.565568 -4.011104 -11.192189 -0.005336 2.693702 5.017861 0.120398 -0.057229 0.011241 -0.000000 0.000000 0.000000 0.000000 0.000000 0.000000 0.000000 20.601377 0.585493 1.324695 59.699078 10.642926 2.201525 2.955566 31.842079 0.014900 2.565331 6.815225 0.152827 0.062161 -0.132412 0.000000 0.000000 0.000000 0.000000 0.000000 0.000000 0.000000 
5.938883 16.926377 -5.314106 176.994631 34.542398 -172.564851 -8.155873 -0.375052 -0.874831 -2.781671 0.033037 -3.240369 -7.848992 -0.080707 0.360008 9.452491 -4.111594 -7.218370 -4.804434 -0.370357 -0.025844 0.000000 0.000000 0.000000 -6.088116 9.693472 1.989927 -62.782213 0.427704 3.586166 -4.014102 -11.007836 -0.005516 2.687304 5.079637 0.121504 -0.057238 0.014016 -0.000000 0.000000 0.000000 0.000000 0.000000 0.000000 0.000000 20.585933 0.424367 1.258332 60.466707 10.149300 2.219001 2.938628 32.068880 0.014844 2.679409 6.774977 0.159023 0.060030 -0.132060 0.000000 0.000000 0.000000 0.000000 0.000000 0.000000 0.000000 
5.983573 16.949738 -5.438663 176.875653 34.260605 -172.626474 -8.225268 -0.388046 -0.933365 -2.796817 0.024850 -3.251627 -7.855173 -0.089323 0.350471 9.413802 -4.226520 -7.199147 -4.804570 -0.370730 -0.020065 0.000000 0.000000 0.000000 -6.065720 9.558329 1.986802 -62.912747 0.019338 3.701594 -4.013297 -10.995491 -0.005688 2.636684 5.142280 0.120711 -0.057469 0.016559 -0.000000 0.000000 0.000000 0.000000 0.000000 0.000000 0.000000 20.558779 0.294523 1.199214 61.193096 9.680121 2.225291 2.926878 32.236670 0.014797 2.807948 6.715599 0.165417 0.057957 -0.131537 0.000000 0.000000 0.000000 0.000000 0.000000 0.000000 0.000000 
6.025044 16.972257 -5.561250 176.807458 34.005481 -172.643515 -8.239763 -0.398270 -0.991200 -2.800346 0.016205 -3.263123 -7.861783 -0.098679 0.339377 9.368036 -4.302594 -7.176821 -4.805602 -0.371099 -0.013519 0.000000 0.000000 0.000000 -6.063615 9.445569 1.986486 -63.042398 -0.404491 3.927401 -4.009053 -11.148986 -0.005847 2.547126 5.200520 0.118021 -0.057936 0.018901 -0.000000 0.000000 0.000000 0.000000 0.000000 0.000000 0.000000 20.524932 0.203898 1.146495 61.879916 9.230886 2.216416 2.919348 32.353384 0.014758 2.955750 6.635720 0.172309 0.055845 -0.130816 0.000000 0.000000 0.000000 0.000000 0.000000 0.000000 0.000000 
6.063910 16.993689 -5.681323 176.775135 33.770501 -172.633772 -8.217928 -0.409053 -1.038933 -2.796021 0.004888 -3.273343 -7.869393 -0.110950 0.324686 9.322497 -4.355744 -7.151760 -4.807617 -0.371475 -0.006373 0.000000 0.000000 0.000000 -6.069830 9.325603 1.989287 -63.170254 -0.810615 4.236737 -4.001245 -11.481929 -0.005975 2.428085 5.249316 0.113634 -0.058585 0.020899 -0.000000 0.000000 0.000000 0.000000 0.000000 0.000000 0.000000 20.495340 0.133305 1.102945 62.524538 8.826321 2.226605 2.915879 32.406984 0.014722 3.110042 6.543104 0.179099 0.053823 -0.129931 0.000000 0.000000 0.000000 0.000000 0.000000 0.000000 0.000000 
6.100610 17.013806 -5.798646 176.773125 33.547630 -172.603163 -8.164279 -0.423247 -1.074080 -2.784685 -0.011725 -3.281954 -7.878201 -0.128760 0.305282 9.279766 -4.386361 -7.122874 -4.810718 -0.371867 0.001660 0.000000 0.000000 0.000000 -6.080659 9.191491 1.995982 -63.291219 -1.193514 4.626962 -3.989627 -11.987012 -0.006067 2.290799 5.282266 0.108049 -0.059376 0.022555 -0.000000 0.000000 0.000000 0.000000 0.000000 0.000000 0.000000 20.472714 0.080530 1.068376 63.128066 8.465822 2.259255 2.915800 32.401947 0.014686 3.268717 6.440355 0.185489 0.051882 -0.128880 0.000000 0.000000 0.000000 0.000000 0.000000 0.000000 0.000000 
6.135239 17.032554 -5.913246 176.801437 33.327217 -172.554651 -8.080857 -0.443309 -1.093809 -2.766818 -0.036020 -3.288152 -7.888887 -0.154407 0.282049 9.241462 -4.386591 -7.090200 -4.814962 -0.372249 0.010435 0.000000 0.000000 0.000000 -6.095862 9.059768 2.007273 -63.398548 -1.580193 5.117566 -3.974190 -12.633955 -0.006124 2.148791 5.290714 0.101765 -0.060286 0.024007 -0.000000 0.000000 0.000000 0.000000 0.000000 0.000000 0.000000 20.457545 0.052839 1.040103 63.693807 8.135507 2.298632 2.917741 32.354071 0.014644 3.435572 6.327094 0.191777 0.049919 -0.127642 0.000000 0.000000 0.000000 0.000000 0.000000 0.000000 0.000000 
6.168028 17.049934 -6.025086 176.851506 33.098921 -172.496837 -7.975065 -0.471462 -1.094483 -2.743930 -0.069765 -3.291079 -7.901426 -0.189549 0.255168 9.210003 -4.366260 -7.054100 -4.820206 -0.372609 0.019856 0.000000 0.000000 0.000000 -6.112557 8.920133 2.022804 -63.488392 -1.967967 5.695450 -3.954607 -13.408262 -0.006139 2.016519 5.268373 0.095286 -0.061258 0.025272 -0.000000 0.000000 0.000000 0.000000 0.000000 0.000000 0.000000 20.453278 0.037833 1.018008 64.221202 7.841938 2.357131 2.921240 32.264145 0.014590 3.602175 6.209699 0.197563 0.048002 -0.126238 0.000000 0.000000 0.000000 0.000000 0.000000 0.000000 0.000000 
6.199188 17.066057 -6.134224 176.915732 32.852577 -172.436335 -7.852725 -0.509164 -1.075139 -2.717243 -0.114043 -3.290834 -7.915622 -0.235240 0.223006 9.186425 -4.338337 -7.012871 -4.826444 -0.372987 0.030515 0.000000 0.000000 0.000000 -6.128457 8.746342 2.042116 -63.557854 -2.334161 6.328996 -3.930125 -14.305506 -0.006107 1.907169 5.211612 0.089409 -0.062201 0.026315 -0.000000 0.000000 0.000000 0.000000 0.000000 0.000000 0.000000 20.462120 0.019716 1.003353 64.708683 7.591494 2.449019 2.926209 32.131243 0.014522 3.758630 6.095226 0.202548 0.046239 -0.124714 0.000000 0.000000 0.000000 0.000000 0.000000 0.000000 0.000000 
6.228647 17.081059 -6.240934 176.992554 32.579211 -172.374236 -7.714611 -0.557153 -1.036092 -2.686997 -0.169538 -3.287090 -7.931561 -0.292045 0.187192 9.170502 -4.304204 -6.966720 -4.833550 -0.373369 0.042341 0.000000 0.000000 0.000000 -6.145461 8.546147 2.064571 -63.603282 -2.699052 7.018644 -3.900775 -15.294809 -0.006032 1.832265 5.116371 0.084433 -0.063098 0.027279 -0.000000 0.000000 0.000000 0.000000 0.000000 0.000000 0.000000 20.483189 -0.003791 0.994053 65.157346 7.375290 2.565775 2.931910 31.967405 0.014440 3.904015 5.986166 0.206833 0.044605 -0.123076 0.000000 0.000000 0.000000 0.000000 0.000000 0.000000 0.000000 
6.256526 17.095107 -6.345386 177.075904 32.271724 -172.313930 -7.562206 -0.615371 -0.979303 -2.653500 -0.236076 -3.280355 -7.948749 -0.359769 0.147250 9.161123 -4.268022 -6.913614 -4.841455 -0.373787 0.055987 0.000000 0.000000 0.000000 -6.163940 8.309953 2.089617 -63.623228 -3.060126 7.745521 -3.866458 -16.358984 -0.005919 1.800029 4.982526 0.080859 -0.063921 0.028235 -0.000000 0.000000 0.000000 0.000000 0.000000 0.000000 0.000000 20.514757 -0.037883 0.989667 65.568294 7.185907 2.702250 2.938020 31.781021 0.014341 4.035942 5.885194 0.210318 0.043113 -0.121351 0.000000 0.000000 0.000000 0.000000 0.000000 0.000000 0.000000 
6.282666 17.108353 -6.447946 177.166359 31.924880 -172.254265 -7.395985 -0.683333 -0.906541 -2.616902 -0.313112 -3.269840 -7.967057 -0.437646 0.107968 9.157779 -4.237891 -6.857214 -4.849505 -0.374159 0.070461 0.000000 0.000000 0.000000 -6.186471 8.056413 2.115226 -63.617209 -3.450113 8.515690 -3.828034 -17.461931 -0.005783 1.815310 4.810645 0.078787 -0.064725 0.029357 -0.000000 0.000000 0.000000 0.000000 0.000000 0.000000 0.000000 20.555275 -0.090833 0.987256 65.941298 7.023724 2.859803 2.944124 31.578781 0.014220 4.148947 5.797494 0.213102 0.041800 -0.119553 0.000000 0.000000 0.000000 0.000000 0.000000 0.000000 0.000000 
